<?xml version="1.0" encoding="UTF-8"?>
<svg version="1.1" xmlns="http://www.w3.org/2000/svg" width="512" height="512">
<path d="M0 0 C1.09563766 -0.00855011 1.09563766 -0.00855011 2.21340942 -0.01727295 C3.75814385 -0.02668317 5.302898 -0.03324103 6.84765625 -0.03710938 C9.15402886 -0.04670327 11.45946525 -0.07771601 13.765625 -0.109375 C26.88222358 -0.20366245 39.53389538 1.45605322 52.0078125 5.703125 C52.73709961 5.95102783 53.46638672 6.19893066 54.21777344 6.4543457 C69.86607611 12.06445674 83.77523917 20.38060681 96.3203125 31.203125 C97.03316406 31.77804688 97.74601562 32.35296875 98.48046875 32.9453125 C102.95940855 36.58752728 106.66884006 40.74347958 110.3203125 45.203125 C111.09503906 46.14027344 111.86976563 47.07742187 112.66796875 48.04296875 C117.37584015 53.86966059 121.50498822 59.86790328 125.1953125 66.390625 C125.55222168 67.01904297 125.90913086 67.64746094 126.27685547 68.29492188 C129.08634473 73.41849776 131.23878173 78.748679 133.3203125 84.203125 C134.5875415 84.1717041 134.5875415 84.1717041 135.88037109 84.13964844 C168.02388229 83.44857826 168.02388229 83.44857826 182.3203125 88.203125 C182.96806641 88.41211426 183.61582031 88.62110352 184.28320312 88.83642578 C210.00484994 97.39534864 230.5557664 116.80083384 243.07421875 140.52734375 C247.29668424 149.30033597 250.8598885 158.29850804 251.87890625 168.03515625 C252.41012374 176.90471612 252.41012374 176.90471612 256.37890625 184.43359375 C258.86868784 185.87690669 258.86868784 185.87690669 261.56640625 186.9765625 C272.68425018 191.9283398 281.41186949 204.27186148 286.21484375 215.07421875 C289.23767889 223.63001715 290.85500288 231.42215372 290.7578125 240.515625 C290.74645264 242.02056519 290.74645264 242.02056519 290.73486328 243.5559082 C290.35042862 260.96911478 283.55449215 276.71965956 271.3203125 289.203125 C259.08518628 299.57335306 246.38762985 304.68297507 230.31274414 304.60717773 C228.75452438 304.61747261 228.75452438 304.61747261 227.16482544 304.62797546 C223.76989654 304.64611095 220.37543513 304.64242799 216.98046875 304.63671875 C214.60680492 304.64128394 212.23314241 304.64659052 209.85948181 304.65260315 C204.90455728 304.66150589 199.94979421 304.65913992 194.99487305 304.64916992 C188.64040969 304.63763009 182.28649791 304.65798307 175.93210697 304.68708706 C171.03969279 304.70540321 166.1474123 304.70516666 161.25497246 304.69944954 C158.91096658 304.69929605 156.56695179 304.70536302 154.22297859 304.71774101 C150.95566784 304.7325778 147.68939677 304.72203052 144.42211914 304.70483398 C143.45325272 304.71450195 142.48438629 304.72416992 141.48616028 304.73413086 C134.94550892 304.66185254 134.94550892 304.66185254 131.72215271 302.29676819 C130.20896764 300.03683187 129.77819329 298.89875474 129.8203125 296.203125 C129.81 295.543125 129.7996875 294.883125 129.7890625 294.203125 C130.60097907 291.14649791 131.78518316 290.11181364 134.3203125 288.203125 C137.33575965 287.60209794 140.31421306 287.65992206 143.38061523 287.68896484 C144.75468285 287.67827721 144.75468285 287.67827721 146.1565094 287.66737366 C149.18919304 287.6480571 152.22118121 287.65638368 155.25390625 287.6640625 C157.36940018 287.6541531 159.48488548 287.64221092 161.60035706 287.62832642 C167.17999923 287.59590839 172.7594453 287.58556994 178.33917236 287.58148193 C187.23727626 287.57274444 196.13521811 287.53690101 205.03318977 287.4893074 C208.12663568 287.47682388 211.2198735 287.47747263 214.31333923 287.47958374 C230.77909011 287.4460777 246.70919566 287.3961457 259.6328125 275.640625 C270.2832028 264.05638002 272.95840713 250.9412352 272.62890625 235.83984375 C272.34847044 230.05309161 271.03852461 225.32497868 268.3203125 220.203125 C267.83433594 219.27113281 267.34835937 218.33914062 266.84765625 217.37890625 C260.86854808 207.01794576 252.67212748 201.40601561 241.88671875 196.625 C238.95002349 194.99797249 237.81222273 194.21591459 236.3203125 191.203125 C235.78992744 187.96711461 235.63068793 184.72440476 235.4453125 181.453125 C233.96131731 162.29295185 227.37509837 144.58954658 214.3203125 130.203125 C213.21236328 128.95595703 213.21236328 128.95595703 212.08203125 127.68359375 C196.91047537 111.51880999 175.80868888 102.55286099 153.78515625 101.19140625 C146.28695193 101.21676658 138.86692767 102.45890601 131.48046875 103.66796875 C128.29981272 104.13898104 125.87630959 104.40467394 122.8203125 103.296875 C119.08983325 100.17259862 118.10023494 96.3977789 116.5078125 91.890625 C111.59974988 78.87958472 105.49262806 67.77579408 96.3203125 57.203125 C95.30710937 55.97335938 95.30710937 55.97335938 94.2734375 54.71875 C76.8794753 34.27767033 49.82813695 21.07322652 23.3203125 18.203125 C-12.60844106 16.38438803 -42.04480473 25.66210506 -69.16796875 49.37890625 C-86.66255927 65.87913284 -97.25325139 88.21433545 -101.7109375 111.6171875 C-103.07034364 115.24592486 -104.55204501 116.90290116 -107.6796875 119.203125 C-110.62724936 119.73173112 -113.45278965 119.52616414 -116.4296875 119.328125 C-139.41738846 118.59438064 -160.28417279 125.96023251 -177.6796875 141.203125 C-178.36804688 141.79609375 -179.05640625 142.3890625 -179.765625 143 C-193.4605076 155.66641316 -202.33456269 175.13359161 -203.98144531 193.58374023 C-204.11564381 197.02543461 -204.14720111 200.44650367 -204.1171875 203.890625 C-204.11033936 205.10943359 -204.10349121 206.32824219 -204.09643555 207.58398438 C-203.84176824 222.01322423 -201.17643598 235.20962805 -194.6796875 248.203125 C-193.94298828 249.67652344 -193.94298828 249.67652344 -193.19140625 251.1796875 C-183.86805226 268.40230323 -170.04584413 278.75765834 -151.53125 284.91796875 C-141.62602043 287.68739008 -131.05318182 287.34576895 -120.86039925 287.37178993 C-118.60259862 287.37906657 -116.34500174 287.39480543 -114.08726501 287.41313171 C-107.67726098 287.46513695 -101.26738916 287.51367053 -94.85717773 287.52905273 C-90.91500813 287.53912534 -86.97338493 287.56840219 -83.0314312 287.61037254 C-81.53596561 287.62266866 -80.040423 287.62780632 -78.54490852 287.62557411 C-76.46041124 287.62322412 -74.37749625 287.64535006 -72.29321289 287.6730957 C-70.51763756 287.68189507 -70.51763756 287.68189507 -68.70619202 287.69087219 C-65.07973179 288.30467086 -63.90309926 289.33182639 -61.6796875 292.203125 C-61.1484375 294.203125 -61.1484375 294.203125 -61.1796875 296.203125 C-61.169375 296.863125 -61.1590625 297.523125 -61.1484375 298.203125 C-61.94451671 301.20012907 -63.24002794 302.2991877 -65.6796875 304.203125 C-68.36215832 304.59823858 -70.63495576 304.75093552 -73.31542969 304.72070312 C-74.46281364 304.73121704 -74.46281364 304.73121704 -75.63337708 304.74194336 C-78.16480795 304.75955541 -80.69511994 304.74787595 -83.2265625 304.734375 C-84.99855766 304.73707233 -86.77055138 304.74095675 -88.5425415 304.74597168 C-92.26499458 304.75187382 -95.98706417 304.74329322 -99.70947266 304.72460938 C-104.43648907 304.70201861 -109.16258696 304.71481042 -113.88956833 304.73889923 C-117.55666734 304.75350961 -121.22355704 304.748679 -124.89066315 304.73838806 C-126.63024254 304.73575211 -128.36984205 304.73887784 -130.10939789 304.74830627 C-156.33947987 304.85911122 -176.97998936 296.66101669 -195.6796875 278.203125 C-215.67378553 258.24747716 -221.92417219 229.96478464 -221.99810791 202.70803833 C-221.99043448 191.69374888 -221.33752048 181.68815555 -217.6796875 171.203125 C-217.46538086 170.56713379 -217.25107422 169.93114258 -217.03027344 169.27587891 C-208.30302157 143.78645988 -189.86662288 123.15441583 -165.78515625 111.21875 C-152.43380224 104.93527621 -138.01470805 100.97204522 -123.1796875 101.140625 C-121.61734375 101.15416016 -121.61734375 101.15416016 -120.0234375 101.16796875 C-119.25 101.17957031 -118.4765625 101.19117187 -117.6796875 101.203125 C-117.54433594 100.4503125 -117.40898438 99.6975 -117.26953125 98.921875 C-110.9200703 67.59279822 -89.84338744 38.96991886 -63.44921875 21.31640625 C-44.80755182 9.29405909 -22.46334483 0.13948487 0 0 Z " fill="#000000" transform="translate(221.6796875,-0.203125)"/>
<path d="M0 0 C6.17412421 4.82848176 9.95600332 11.16705864 12.015625 18.6796875 C13.01414012 29.77946022 12.36509702 39.4141741 5.265625 48.4921875 C0.14819181 53.95853659 -4.59736726 56.44851954 -11.984375 57.6796875 C-11.984375 110.8096875 -11.984375 163.9396875 -11.984375 218.6796875 C3.855625 218.3496875 19.695625 218.0196875 36.015625 217.6796875 C37.335625 214.0496875 38.655625 210.4196875 40.015625 206.6796875 C46.66230693 196.77482815 55.03034899 189.08814368 67.015625 186.6796875 C79.43280584 185.34164184 90.40453209 186.40442376 100.765625 193.8671875 C108.8508568 200.67961 115.07866517 208.98461826 116.23876953 219.75048828 C117.13433549 232.66179812 115.56833844 243.43015604 106.98828125 253.61328125 C98.85669607 262.131318 90.20760007 266.68218278 78.38037109 267.15039062 C65.86606824 267.30543051 56.24275677 264.48819703 47.015625 255.6796875 C42.70537436 251.16459327 39.86308631 246.79643038 37.81640625 240.8828125 C37.47391846 239.90473633 37.13143066 238.92666016 36.77856445 237.91894531 C36.40090942 236.8105127 36.40090942 236.8105127 36.015625 235.6796875 C34.90142181 235.67421906 34.90142181 235.67421906 33.76470947 235.66864014 C26.76079514 235.63075654 19.75735101 235.57390037 12.75378799 235.49578476 C9.15322307 235.45629298 5.5529033 235.42411329 1.95214844 235.40869141 C-1.5235409 235.39353532 -4.99855633 235.3591104 -8.47394562 235.31137848 C-10.4436062 235.28934378 -12.4134568 235.28721285 -14.38323975 235.28533936 C-15.58418274 235.26562073 -16.78512573 235.2459021 -18.02246094 235.22558594 C-19.07947205 235.21670349 -20.13648315 235.20782104 -21.2255249 235.19866943 C-24.7879824 234.52851665 -25.77999324 233.53729721 -27.984375 230.6796875 C-28.47656631 227.48569107 -28.47656631 227.48569107 -28.46539307 223.63092041 C-28.46881077 222.92104815 -28.47222847 222.21117589 -28.47574973 221.47979236 C-28.48233868 219.10102632 -28.46033732 216.72338863 -28.43847656 214.34472656 C-28.4373483 212.639725 -28.43798154 210.9347215 -28.44024658 209.22972107 C-28.44139548 204.59977041 -28.41785781 199.97023323 -28.38995075 195.34037876 C-28.36496634 190.50239209 -28.36259744 185.66439621 -28.35784912 180.82635498 C-28.34541064 171.66428591 -28.31257721 162.50240747 -28.27245116 153.34042239 C-28.22776061 142.91008341 -28.20575325 132.47973538 -28.18566942 122.04932451 C-28.14384536 100.59267239 -28.07347632 79.13619195 -27.984375 57.6796875 C-28.92603516 57.53797119 -29.86769531 57.39625488 -30.83789062 57.25024414 C-37.28404014 56.08135437 -42.35013476 51.86111736 -46.359375 46.8046875 C-52.42993771 37.80001948 -52.92086335 29.23359548 -51.984375 18.6796875 C-50.17645015 10.80448941 -46.13101808 4.5797132 -39.515625 -0.046875 C-27.40109416 -7.56501031 -12.09994556 -8.05075118 0 0 Z M-33.359375 18.3046875 C-35.56345393 22.88238989 -35.7815389 26.68521161 -34.984375 31.6796875 C-32.65468569 36.51827298 -29.82296048 39.34999819 -24.984375 41.6796875 C-19.98989911 42.4768514 -16.18707739 42.25876643 -11.609375 40.0546875 C-8.02529787 36.81195105 -5.38902259 34.21492854 -4.6015625 29.28125 C-4.34553581 23.59745756 -5.04810568 20.03030095 -8.984375 15.6796875 C-13.33498845 11.74341818 -16.90214506 11.04084831 -22.5859375 11.296875 C-27.51961604 12.08433509 -30.11663855 14.72061037 -33.359375 18.3046875 Z M56.4609375 213.58203125 C52.33584605 219.56898831 52.29954358 225.62903962 53.015625 232.6796875 C54.78904933 239.32441664 59.4622897 243.85336709 65.015625 247.6796875 C71.01449504 250.62031007 77.8984603 250.77852538 84.328125 249.0625 C90.45695361 246.35719675 95.25515292 241.27105055 98.1875 235.2890625 C100.09368357 229.28278598 100.08001187 222.17677192 97.515625 216.3671875 C94.03100362 210.42721013 88.5810667 205.76333067 82.015625 203.6796875 C70.58117403 202.32332504 63.83745011 204.95322696 56.4609375 213.58203125 Z " fill="#000000" transform="translate(347.984375,197.3203125)"/>
<path d="M0 0 C5.74878489 4.38952773 10.86633901 11.51318808 12.05078125 18.75 C12.8038222 29.93450988 12.48432809 39.37698109 5.30078125 48.5625 C0.26307535 53.94368584 -4.70506411 56.63598916 -11.94921875 57.75 C-11.94553158 58.63790852 -11.94184441 59.52581703 -11.9380455 60.44063187 C-11.84976355 82.03103359 -11.78354279 103.62140426 -11.74197006 125.21194839 C-11.72133217 135.65292079 -11.69318813 146.09377282 -11.64746094 156.53466797 C-11.60763074 165.63342771 -11.58179487 174.73210028 -11.57286477 183.83094478 C-11.56764355 188.65013462 -11.55534635 193.46907509 -11.52629852 198.28818512 C-11.49918971 202.82225635 -11.49076454 207.35597498 -11.49678802 211.89011955 C-11.49568575 213.55584312 -11.4877048 215.22157823 -11.47239685 216.88723183 C-11.45253905 219.15900118 -11.45726304 221.42943361 -11.46820068 223.70123291 C-11.46451351 224.97330723 -11.46082634 226.24538155 -11.45702744 227.55600357 C-12.03726193 231.32134204 -12.92557967 232.50327866 -15.94921875 234.75 C-18.70806885 235.26898193 -18.70806885 235.26898193 -21.91113281 235.29589844 C-23.11207581 235.31561707 -24.3130188 235.33533569 -25.550354 235.35565186 C-26.84213562 235.35688049 -28.13391724 235.35810913 -29.46484375 235.359375 C-30.80436196 235.37436026 -32.14386171 235.39108815 -33.4833374 235.40948486 C-37.00143288 235.45313311 -40.51927916 235.4731514 -44.03759766 235.48822021 C-47.6306836 235.50780079 -51.22350077 235.54976958 -54.81640625 235.58984375 C-61.86057464 235.66511783 -68.9047235 235.71542602 -75.94921875 235.75 C-76.20098877 236.48895508 -76.45275879 237.22791016 -76.7121582 237.98925781 C-77.054646 238.96733398 -77.39713379 239.94541016 -77.75 240.953125 C-78.08427002 241.91895508 -78.41854004 242.88478516 -78.76293945 243.87988281 C-82.7908807 253.62519611 -91.35592446 261.01321644 -100.88671875 265.1875 C-111.0367066 268.48517538 -123.75668795 268.36504795 -133.5625 264.0703125 C-143.68025097 258.47325877 -151.67210451 250.16787109 -155.2890625 239.03515625 C-157.69624055 227.05624065 -156.99327486 214.83878428 -150.44140625 204.33203125 C-144.10096799 195.52914371 -135.71491721 188.91338055 -124.94921875 186.75 C-112.53203791 185.41195434 -101.56031166 186.47473626 -91.19921875 193.9375 C-83.00404291 200.84255871 -79.72240757 207.37373073 -75.94921875 217.75 C-60.10921875 218.08 -44.26921875 218.41 -27.94921875 218.75 C-27.94921875 165.62 -27.94921875 112.49 -27.94921875 57.75 C-29.92921875 57.42 -31.90921875 57.09 -33.94921875 56.75 C-37.01171875 54.9375 -37.01171875 54.9375 -39.94921875 52.75 C-41.21765625 51.88375 -41.21765625 51.88375 -42.51171875 51 C-48.2886234 45.66747263 -51.58129956 38.83989242 -52.28515625 31.015625 C-52.52399222 20.40054706 -51.32142556 11.45617672 -43.79296875 3.3515625 C-31.40377275 -7.41023911 -13.87136393 -8.89546384 0 0 Z M-33.32421875 18.375 C-35.52829768 22.95270239 -35.74638265 26.75552411 -34.94921875 31.75 C-32.61952944 36.58858548 -29.78780423 39.42031069 -24.94921875 41.75 C-19.95474286 42.5471639 -16.15192114 42.32907893 -11.57421875 40.125 C-7.99014162 36.88226355 -5.35386634 34.28524104 -4.56640625 29.3515625 C-4.31037956 23.66777006 -5.01294943 20.10061345 -8.94921875 15.75 C-13.2998322 11.81373068 -16.86698881 11.11116081 -22.55078125 11.3671875 C-27.48445979 12.15464759 -30.0814823 14.79092287 -33.32421875 18.375 Z M-135.50390625 213.65234375 C-139.6289977 219.63930081 -139.66530017 225.69935212 -138.94921875 232.75 C-137.17579442 239.39472914 -132.50255405 243.92367959 -126.94921875 247.75 C-120.95034871 250.69062257 -114.06638345 250.84883788 -107.63671875 249.1328125 C-101.50789014 246.42750925 -96.70969083 241.34136305 -93.77734375 235.359375 C-91.87116018 229.35309848 -91.88483188 222.24708442 -94.44921875 216.4375 C-97.93384013 210.49752263 -103.38377705 205.83364317 -109.94921875 203.75 C-121.38366972 202.39363754 -128.12739364 205.02353946 -135.50390625 213.65234375 Z " fill="#000000" transform="translate(203.94921875,197.25)"/>
<path d="M0 0 C6.17412421 4.82848176 9.95600332 11.16705864 12.015625 18.6796875 C13.01414012 29.77946022 12.36509702 39.4141741 5.265625 48.4921875 C0.14819181 53.95853659 -4.59736726 56.44851954 -11.984375 57.6796875 C-11.654375 92.3296875 -11.324375 126.9796875 -10.984375 162.6796875 C-7.354375 163.9996875 -3.724375 165.3196875 0.015625 166.6796875 C9.92048435 173.32636943 17.60716882 181.69441149 20.015625 193.6796875 C21.35367066 206.09686834 20.29088874 217.06859459 12.828125 227.4296875 C6.0157025 235.5149193 -2.28930576 241.74272767 -13.05517578 242.90283203 C-25.96648562 243.79839799 -36.73484354 242.23240094 -46.91796875 233.65234375 C-55.4360055 225.52075857 -59.98687028 216.87166257 -60.45507812 205.04443359 C-60.61011801 192.53013074 -57.79288453 182.90681927 -48.984375 173.6796875 C-42.78984838 167.766198 -37.36739443 165.7280582 -28.984375 162.6796875 C-28.654375 128.0296875 -28.324375 93.3796875 -27.984375 57.6796875 C-29.964375 57.3496875 -31.944375 57.0196875 -33.984375 56.6796875 C-42.03972202 52.79969535 -46.72560934 46.89605006 -50.859375 39.1796875 C-53.74664177 30.43144208 -53.21081891 19.02799311 -49.234375 10.78515625 C-44.78836462 3.29640752 -38.47556187 -2.03175303 -30.15625 -4.96484375 C-19.51205263 -6.70696958 -9.11370262 -6.06384151 0 0 Z M-33.359375 18.3046875 C-35.56345393 22.88238989 -35.7815389 26.68521161 -34.984375 31.6796875 C-32.65468569 36.51827298 -29.82296048 39.34999819 -24.984375 41.6796875 C-19.98989911 42.4768514 -16.18707739 42.25876643 -11.609375 40.0546875 C-8.02529787 36.81195105 -5.38902259 34.21492854 -4.6015625 29.28125 C-4.34553581 23.59745756 -5.04810568 20.03030095 -8.984375 15.6796875 C-13.33498845 11.74341818 -16.90214506 11.04084831 -22.5859375 11.296875 C-27.51961604 12.08433509 -30.11663855 14.72061037 -33.359375 18.3046875 Z M-39.5390625 189.58203125 C-43.66415395 195.56898831 -43.70045642 201.62903962 -42.984375 208.6796875 C-41.21095067 215.32441664 -36.5377103 219.85336709 -30.984375 223.6796875 C-24.98550496 226.62031007 -18.1015397 226.77852538 -11.671875 225.0625 C-5.54304639 222.35719675 -0.74484708 217.27105055 2.1875 211.2890625 C4.09368357 205.28278598 4.08001187 198.17677192 1.515625 192.3671875 C-1.96899638 186.42721013 -7.4189333 181.76333067 -13.984375 179.6796875 C-25.41882597 178.32332504 -32.16254989 180.95322696 -39.5390625 189.58203125 Z " fill="#000000" transform="translate(275.984375,269.3203125)"/>
</svg>
